PathFileType        4      (X/Y/Z)      C:\Users\u0101727\OneDrive - KU Leuven\reference_data\TRC\gait_23.trc         																																																																																																																																																																																		
DataRate	CameraRate	NumFrames	NumMarkers	Units	OrigDataRate	OrigDataStartFrame	OrigNumFrames																																																																																																																																																																											
100	100	7	59	m	100	420	479																																																																																																																																																																											
Frame#	Time	LASI			RASI			LKNE			LTHI1			LTHI2			LTHI3			LTIB1			LTIB2			LTIB3			foot_l5			foot_l6			foot_l8			foot_l9			RKNE			RTHI3			RANK			RTIB1			RTIB2			RTIB3			Foot_r3			Foot_r4			Foot_r5			Foot_r6			Foot_r7			Foot_r9			RSHO			LSHO			CLAV			hum_l2			rad_l2			LW1			LH			hum_r2			RELB			rad_r2			RW2			RW1			RH			LANK			RTHI2			foot_l7			LW2			Foot_r8			foot_l4			RKNE_med			RANK_med			RPSI			Foot_r10			LANK_med			LPSI			Foot_r2			foot_l1			LELB			Foot_r1			foot_l2			foot_l10			foot_l3			LKNE_med			RTHI1		
		X1	Y1	Z1	X2	Y2	Z2	X3	Y3	Z3	X4	Y4	Z4	X5	Y5	Z5	X6	Y6	Z6	X7	Y7	Z7	X8	Y8	Z8	X9	Y9	Z9	X10	Y10	Z10	X11	Y11	Z11	X12	Y12	Z12	X13	Y13	Z13	X14	Y14	Z14	X15	Y15	Z15	X16	Y16	Z16	X17	Y17	Z17	X18	Y18	Z18	X19	Y19	Z19	X20	Y20	Z20	X21	Y21	Z21	X22	Y22	Z22	X23	Y23	Z23	X24	Y24	Z24	X25	Y25	Z25	X26	Y26	Z26	X27	Y27	Z27	X28	Y28	Z28	X29	Y29	Z29	X30	Y30	Z30	X31	Y31	Z31	X32	Y32	Z32	X33	Y33	Z33	X34	Y34	Z34	X35	Y35	Z35	X36	Y36	Z36	X37	Y37	Z37	X38	Y38	Z38	X39	Y39	Z39	X40	Y40	Z40	X41	Y41	Z41	X42	Y42	Z42	X43	Y43	Z43	X44	Y44	Z44	X45	Y45	Z45	X46	Y46	Z46	X47	Y47	Z47	X48	Y48	Z48	X49	Y49	Z49	X50	Y50	Z50	X51	Y51	Z51	X52	Y52	Z52	X53	Y53	Z53	X54	Y54	Z54	X55	Y55	Z55	X56	Y56	Z56	X57	Y57	Z57	X58	Y58	Z58	X59	Y59	Z59
420	4.2	NaN	NaN	NaN	NaN	NaN	NaN	NaN	NaN	NaN	NaN	NaN	NaN	NaN	NaN	NaN	NaN	NaN	NaN	NaN	NaN	NaN	NaN	NaN	NaN	NaN	NaN	NaN	NaN	NaN	NaN	NaN	NaN	NaN	NaN	NaN	NaN	2.3477	0.10348	-0.023821	NaN	NaN	NaN	NaN	NaN	NaN	2.7245	0.042609	0.11045	2.7818	0.25118	0.14319	NaN	NaN	NaN	2.7491	0.20675	0.14693	NaN	NaN	NaN	NaN	NaN	NaN	2.835	-0.0014793	0.13722	2.8753	0.011421	0.092392	NaN	NaN	NaN	NaN	NaN	NaN	2.6291	1.3473	0.19103	NaN	NaN	NaN	NaN	NaN	NaN	NaN	NaN	NaN	NaN	NaN	NaN	NaN	NaN	NaN	NaN	NaN	NaN	NaN	NaN	NaN	NaN	NaN	NaN	2.5799	0.90794	0.28832	NaN	NaN	NaN	NaN	NaN	NaN	2.6029	0.77781	0.32949	NaN	NaN	NaN	NaN	NaN	NaN	NaN	NaN	NaN	NaN	NaN	NaN	NaN	NaN	NaN	NaN	NaN	NaN	NaN	NaN	NaN	NaN	NaN	NaN	NaN	NaN	NaN	NaN	NaN	NaN	NaN	NaN	NaN	NaN	NaN	NaN	NaN	NaN	NaN	NaN	NaN	NaN	NaN	NaN	NaN	NaN	NaN	NaN	2.2628	0.20655	-0.068697	NaN	NaN	NaN	NaN	NaN	NaN	NaN	NaN	NaN	NaN	NaN	NaN
421	4.21	NaN	NaN	NaN	NaN	NaN	NaN	NaN	NaN	NaN	NaN	NaN	NaN	NaN	NaN	NaN	NaN	NaN	NaN	NaN	NaN	NaN	NaN	NaN	NaN	NaN	NaN	NaN	NaN	NaN	NaN	NaN	NaN	NaN	NaN	NaN	NaN	2.3696	0.10595	-0.021902	NaN	NaN	NaN	NaN	NaN	NaN	2.7247	0.04265	0.11028	2.7832	0.25072	0.14361	NaN	NaN	NaN	2.75	0.20652	0.14703	NaN	NaN	NaN	NaN	NaN	NaN	2.8349	-0.0014999	0.1372	2.8754	0.011252	0.092537	NaN	NaN	NaN	NaN	NaN	NaN	2.6424	1.3485	0.1919	NaN	NaN	NaN	NaN	NaN	NaN	NaN	NaN	NaN	NaN	NaN	NaN	NaN	NaN	NaN	NaN	NaN	NaN	NaN	NaN	NaN	NaN	NaN	NaN	2.5975	0.90964	0.29022	NaN	NaN	NaN	NaN	NaN	NaN	2.6225	0.77984	0.33104	NaN	NaN	NaN	NaN	NaN	NaN	NaN	NaN	NaN	NaN	NaN	NaN	NaN	NaN	NaN	NaN	NaN	NaN	NaN	NaN	NaN	NaN	NaN	NaN	NaN	NaN	NaN	NaN	NaN	NaN	NaN	NaN	NaN	NaN	NaN	NaN	NaN	NaN	NaN	NaN	NaN	NaN	NaN	NaN	NaN	NaN	NaN	NaN	NaN	NaN	NaN	NaN	NaN	NaN	NaN	NaN	NaN	NaN	NaN	NaN	NaN	NaN	NaN
422	4.22	NaN	NaN	NaN	NaN	NaN	NaN	NaN	NaN	NaN	NaN	NaN	NaN	NaN	NaN	NaN	NaN	NaN	NaN	NaN	NaN	NaN	NaN	NaN	NaN	NaN	NaN	NaN	NaN	NaN	NaN	NaN	NaN	NaN	NaN	NaN	NaN	2.3932	0.10737	-0.019688	NaN	NaN	NaN	NaN	NaN	NaN	2.7247	0.04276	0.11013	2.7847	0.25046	0.14416	NaN	NaN	NaN	2.7508	0.2065	0.147	NaN	NaN	NaN	NaN	NaN	NaN	2.8349	-0.0015268	0.13729	2.8754	0.011184	0.092508	NaN	NaN	NaN	NaN	NaN	NaN	2.657	1.3506	0.19264	NaN	NaN	NaN	NaN	NaN	NaN	NaN	NaN	NaN	NaN	NaN	NaN	NaN	NaN	NaN	NaN	NaN	NaN	NaN	NaN	NaN	NaN	NaN	NaN	2.6153	0.91146	0.29201	NaN	NaN	NaN	NaN	NaN	NaN	2.643	0.78232	0.33247	NaN	NaN	NaN	NaN	NaN	NaN	NaN	NaN	NaN	NaN	NaN	NaN	NaN	NaN	NaN	NaN	NaN	NaN	NaN	NaN	NaN	NaN	NaN	NaN	NaN	NaN	NaN	NaN	NaN	NaN	NaN	NaN	NaN	NaN	NaN	NaN	NaN	NaN	NaN	NaN	NaN	NaN	NaN	NaN	NaN	NaN	NaN	NaN	NaN	NaN	NaN	NaN	NaN	NaN	NaN	NaN	NaN	NaN	NaN	NaN	NaN	NaN	NaN
423	4.23	NaN	NaN	NaN	NaN	NaN	NaN	NaN	NaN	NaN	NaN	NaN	NaN	NaN	NaN	NaN	NaN	NaN	NaN	NaN	NaN	NaN	NaN	NaN	NaN	NaN	NaN	NaN	NaN	NaN	NaN	NaN	NaN	NaN	NaN	NaN	NaN	2.4182	0.10783	-0.017468	NaN	NaN	NaN	NaN	NaN	NaN	2.7249	0.042838	0.10997	2.786	0.25008	0.14462	NaN	NaN	NaN	2.7516	0.20666	0.14736	NaN	NaN	NaN	NaN	NaN	NaN	2.835	-0.0014697	0.13731	2.8755	0.011147	0.092582	NaN	NaN	NaN	NaN	NaN	NaN	2.6706	1.3522	0.19328	NaN	NaN	NaN	NaN	NaN	NaN	NaN	NaN	NaN	NaN	NaN	NaN	NaN	NaN	NaN	NaN	NaN	NaN	NaN	NaN	NaN	NaN	NaN	NaN	2.6332	0.91335	0.29382	NaN	NaN	NaN	NaN	NaN	NaN	2.6635	0.78495	0.33377	NaN	NaN	NaN	NaN	NaN	NaN	NaN	NaN	NaN	NaN	NaN	NaN	NaN	NaN	NaN	NaN	NaN	NaN	NaN	NaN	NaN	NaN	NaN	NaN	NaN	NaN	NaN	NaN	NaN	NaN	NaN	NaN	NaN	NaN	NaN	NaN	NaN	NaN	NaN	NaN	NaN	NaN	NaN	NaN	NaN	NaN	NaN	NaN	NaN	NaN	NaN	NaN	NaN	NaN	NaN	NaN	NaN	NaN	NaN	NaN	NaN	NaN	NaN
424	4.24	NaN	NaN	NaN	NaN	NaN	NaN	NaN	NaN	NaN	NaN	NaN	NaN	NaN	NaN	NaN	NaN	NaN	NaN	NaN	NaN	NaN	NaN	NaN	NaN	NaN	NaN	NaN	NaN	NaN	NaN	NaN	NaN	NaN	NaN	NaN	NaN	2.4443	0.10713	-0.015011	NaN	NaN	NaN	NaN	NaN	NaN	2.725	0.042894	0.10991	2.7869	0.24991	0.14499	NaN	NaN	NaN	2.7523	0.20709	0.1477	NaN	NaN	NaN	NaN	NaN	NaN	2.835	-0.0014793	0.13733	2.8755	0.010995	0.0926	NaN	NaN	NaN	NaN	NaN	NaN	2.684	1.3537	0.19372	NaN	NaN	NaN	NaN	NaN	NaN	NaN	NaN	NaN	NaN	NaN	NaN	NaN	NaN	NaN	NaN	NaN	NaN	NaN	NaN	NaN	NaN	NaN	NaN	2.6509	0.91534	0.29548	NaN	NaN	NaN	NaN	NaN	NaN	2.6838	0.78753	0.33491	NaN	NaN	NaN	NaN	NaN	NaN	NaN	NaN	NaN	NaN	NaN	NaN	NaN	NaN	NaN	NaN	NaN	NaN	NaN	NaN	NaN	NaN	NaN	NaN	NaN	NaN	NaN	NaN	NaN	NaN	NaN	NaN	NaN	NaN	NaN	NaN	NaN	NaN	NaN	NaN	NaN	NaN	NaN	NaN	NaN	NaN	NaN	NaN	NaN	NaN	NaN	NaN	NaN	NaN	NaN	NaN	NaN	NaN	NaN	NaN	NaN	NaN	NaN
425	4.25	NaN	NaN	NaN	NaN	NaN	NaN	NaN	NaN	NaN	NaN	NaN	NaN	NaN	NaN	NaN	NaN	NaN	NaN	NaN	NaN	NaN	NaN	NaN	NaN	NaN	NaN	NaN	NaN	NaN	NaN	NaN	NaN	NaN	NaN	NaN	NaN	2.4719	0.10566	-0.0125	NaN	NaN	NaN	NaN	NaN	NaN	2.7251	0.043087	0.10972	2.7882	0.25025	0.14515	NaN	NaN	NaN	2.7531	0.20719	0.14801	NaN	NaN	NaN	NaN	NaN	NaN	2.835	-0.0014696	0.13737	2.8757	0.011027	0.092649	NaN	NaN	NaN	NaN	NaN	NaN	2.698	1.3557	0.19431	NaN	NaN	NaN	NaN	NaN	NaN	NaN	NaN	NaN	NaN	NaN	NaN	NaN	NaN	NaN	NaN	NaN	NaN	NaN	NaN	NaN	NaN	NaN	NaN	2.6691	0.9175	0.29716	NaN	NaN	NaN	NaN	NaN	NaN	2.7046	0.79029	0.33579	NaN	NaN	NaN	NaN	NaN	NaN	NaN	NaN	NaN	NaN	NaN	NaN	NaN	NaN	NaN	NaN	NaN	NaN	NaN	NaN	NaN	NaN	NaN	NaN	NaN	NaN	NaN	NaN	NaN	NaN	NaN	NaN	NaN	NaN	NaN	NaN	NaN	NaN	NaN	NaN	NaN	NaN	NaN	NaN	NaN	NaN	NaN	NaN	NaN	NaN	NaN	NaN	NaN	NaN	NaN	NaN	NaN	NaN	NaN	NaN	NaN	NaN	NaN
426	4.26	NaN	NaN	NaN	NaN	NaN	NaN	NaN	NaN	NaN	NaN	NaN	NaN	NaN	NaN	NaN	NaN	NaN	NaN	NaN	NaN	NaN	NaN	NaN	NaN	NaN	NaN	NaN	NaN	NaN	NaN	NaN	NaN	NaN	NaN	NaN	NaN	2.5001	0.10304	-0.0097688	NaN	NaN	NaN	NaN	NaN	NaN	2.7251	0.043271	0.10958	2.7893	0.24955	0.14549	NaN	NaN	NaN	2.7541	0.20687	0.14778	NaN	NaN	NaN	NaN	NaN	NaN	2.8349	-0.0015325	0.13734	2.8757	0.010994	0.092639	NaN	NaN	NaN	NaN	NaN	NaN	2.7112	1.3572	0.19455	NaN	NaN	NaN	NaN	NaN	NaN	NaN	NaN	NaN	NaN	NaN	NaN	NaN	NaN	NaN	NaN	NaN	NaN	NaN	NaN	NaN	NaN	NaN	NaN	2.6871	0.91964	0.29865	NaN	NaN	NaN	NaN	NaN	NaN	2.7257	0.79343	0.33663	NaN	NaN	NaN	NaN	NaN	NaN	NaN	NaN	NaN	NaN	NaN	NaN	NaN	NaN	NaN	NaN	NaN	NaN	NaN	NaN	NaN	NaN	NaN	NaN	NaN	NaN	NaN	NaN	NaN	NaN	NaN	NaN	NaN	NaN	NaN	NaN	NaN	NaN	NaN	NaN	NaN	NaN	NaN	NaN	NaN	NaN	NaN	NaN	NaN	NaN	NaN	NaN	NaN	NaN	NaN	NaN	NaN	NaN	NaN	NaN	NaN	NaN	NaN
